<?xml version="1.0" encoding="UTF-8" standalone="no"?>
<svg
   viewBox="0 0 640 640"
   version="1.1"
   id="svg1"
   sodipodi:docname="volume_mid.svg"
   inkscape:version="1.4.2 (ebf0e940d0, 2025-05-08)"
   xmlns:inkscape="http://www.inkscape.org/namespaces/inkscape"
   xmlns:sodipodi="http://sodipodi.sourceforge.net/DTD/sodipodi-0.dtd"
   xmlns="http://www.w3.org/2000/svg"
   xmlns:svg="http://www.w3.org/2000/svg">
  <defs
     id="defs1" />
  <sodipodi:namedview
     id="namedview1"
     pagecolor="#ffffff"
     bordercolor="#666666"
     borderopacity="1.0"
     inkscape:showpageshadow="2"
     inkscape:pageopacity="0.0"
     inkscape:pagecheckerboard="0"
     inkscape:deskcolor="#d1d1d1"
     showgrid="false"
     inkscape:zoom="0.896875"
     inkscape:cx="319.44251"
     inkscape:cy="320"
     inkscape:current-layer="svg1" />
  <!--!Font Awesome Free v7.0.1 by @fontawesome - https://fontawesome.com License - https://fontawesome.com/license/free Copyright 2025 Fonticons, Inc.-->
  <path
     d="m 504.31951,167.65505 c -10.3,-8.4 -25.4,-6.8 -33.8,3.5 -8.4,10.3 -6.8,25.4 3.5,33.8 32.5,26.4 53.2,66.6 53.2,111.7 0,45.1 -20.7,85.3 -53.2,111.8 -10.3,8.4 -11.8,23.5 -3.5,33.8 8.3,10.3 23.5,11.8 33.8,3.5 43.2,-35.2 70.9,-88.9 70.9,-149 0,-60.1 -27.7,-113.8 -70.9,-149 z m -60.5,74.5 c -10.3,-8.4 -25.4,-6.8 -33.8,3.5 -8.4,10.3 -6.8,25.4 3.5,33.8 10.8,8.8 17.7,22.2 17.7,37.2 0,15 -6.9,28.4 -17.7,37.3 -10.3,8.4 -11.8,23.5 -3.5,33.8 8.3,10.3 23.5,11.8 33.8,3.5 21.5,-17.7 35.4,-44.5 35.4,-74.6 0,-30.1 -13.9,-56.9 -35.4,-74.5 z m -332.6,170.5 h 48 l 134.1,119.2 c 6.4,5.7 14.6,8.8 23.1,8.8 19.2,0 34.8,-15.6 34.8,-34.8 v -378.4 c 0,-19.2 -15.6,-34.799998 -34.8,-34.799998 -8.5,0 -16.7,3.1 -23.1,8.799998 l -134.1,119.2 h -48 c -26.499998,0 -47.999998,21.5 -47.999998,48 v 96 c 0,26.5 21.5,48 47.999998,48 z"
     id="path1"
     sodipodi:nodetypes="cscscscscccscscscscsccssssccssss" />
</svg>
